<svg xmlns="http://www.w3.org/2000/svg" width="36" height="36" viewBox="0 0 36 36"><g id="topic_icon6" transform="translate(-478 -396)"><circle id="Ellipse_5" data-name="Ellipse 5" cx="3" cy="3" r="3" transform="translate(493 412.5)" stroke-width="3" stroke="#fff" stroke-linecap="round" stroke-linejoin="round" fill="none"></circle><path id="Path_6290" data-name="Path 6290" d="M504.16,417.8A8.9,8.9,0,0,0,505,414a9,9,0,0,0-18,0,8.9,8.9,0,0,0,.84,3.8" fill="none" stroke="#fff" stroke-linecap="round" stroke-linejoin="round" stroke-width="3" opacity="0.6"></path><path id="Path_6291" data-name="Path 6291" d="M510.025,422.685a16.5,16.5,0,1,0-28.05,0" fill="none" stroke="#fff" stroke-linecap="round" stroke-linejoin="round" stroke-width="3" opacity="0.6"></path><path id="Path_6292" data-name="Path 6292" d="M488.5,430.5V426a3.009,3.009,0,0,1,3-3h9a3.009,3.009,0,0,1,3,3v4.5" fill="none" stroke="#fff" stroke-linecap="round" stroke-linejoin="round" stroke-width="3"></path></g></svg>