<svg xmlns="http://www.w3.org/2000/svg" width="36" height="37.572" viewBox="0 0 36 37.572"><g id="topic_icon1" transform="translate(-541.5 -267.214)"><circle id="Ellipse_4" data-name="Ellipse 4" cx="3.143" cy="3.143" r="3.143" transform="translate(547.714 268.714)" stroke-width="3" stroke="#fff" stroke-linecap="round" stroke-linejoin="round" fill="none"></circle><path id="Path_6288" data-name="Path 6288" d="M558.714,282.857v6.286a3.143,3.143,0,0,1-3.143,3.143H554v11h-6.286v-11h-1.571A3.143,3.143,0,0,1,543,289.143v-6.286a3.152,3.152,0,0,1,3.143-3.143h9.428A3.152,3.152,0,0,1,558.714,282.857Z" fill="none" stroke="#fff" stroke-linecap="round" stroke-linejoin="round" stroke-width="3"></path><path id="Path_6289" data-name="Path 6289" d="M560.286,270.286h12.571A3.143,3.143,0,0,1,576,273.429v14.142a3.143,3.143,0,0,1-3.143,3.143H565" fill="none" stroke="#fff" stroke-linecap="round" stroke-linejoin="round" stroke-width="3" opacity="0.6"></path></g></svg>